<?xml version="1.0" encoding="UTF-8" standalone="no"?>
<!DOCTYPE svg PUBLIC "-//W3C//DTD SVG 20010904//EN"
 "http://www.w3.org/TR/2001/REC-SVG-20010904/DTD/svg10.dtd">

<svg version="1.0" xmlns="http://www.w3.org/2000/svg"
 viewBox="0 0 787 1105"
 preserveAspectRatio="xMidYMid meet">

 <line x1="90" y1="30" x2="765" y2="30" stroke="green" stroke-width="30" />
 <line x1="750" y1="30" x2="750" y2="900" stroke="green" stroke-width="30" />
 <text x="-920" y="170" font-family="cooper black" font-size="140" font-weight="bolder" fill="green" stroke="green" transform="rotate(-90)">
  La Boutique</text>
 <text x="75" y="1080" font-family="cooper black" font-size="200" font-weight="bolder" fill="green" stroke="green">
  Cassée</text>
<g transform="translate(0.000000,1105.000000) scale(0.100000,-0.100000)"
fill="green" stroke="none">
<path d="M4310 10276 c-7 -34 -19 -77 -26 -96 -7 -19 -15 -47 -18 -62 -6 -25
-11 -28 -45 -28 -38 0 -38 0 -45 -46 -3 -26 -6 -90 -6 -143 0 -78 5 -107 24
-154 l24 -58 -14 -232 c-8 -128 -18 -326 -24 -442 -6 -115 -17 -311 -25 -435
-8 -124 -19 -306 -25 -405 -6 -99 -17 -268 -25 -375 -9 -107 -20 -253 -26
-325 -9 -119 -22 -248 -49 -475 -11 -86 -29 -202 -55 -340 -7 -41 -19 -104
-25 -140 -6 -36 -15 -81 -20 -100 -5 -19 -16 -71 -25 -115 -9 -44 -23 -102
-30 -130 -8 -27 -22 -80 -31 -117 l-17 -68 -58 0 -59 0 0 -90 0 -90 35 0 c19
0 35 -1 35 -2 0 -14 -38 -174 -71 -303 -23 -88 -44 -176 -48 -195 -4 -19 -13
-51 -19 -70 -6 -19 -16 -55 -22 -80 -7 -25 -18 -63 -25 -85 -7 -22 -25 -80
-40 -130 -33 -110 -104 -307 -116 -320 -5 -5 -9 -14 -9 -21 0 -18 -96 -217
-147 -306 l-45 -78 -109 0 -109 0 0 -102 0 -102 36 -37 37 -38 -83 -143 c-46
-79 -95 -163 -110 -188 -14 -25 -30 -52 -34 -60 -4 -8 -12 -24 -19 -35 -7 -11
-27 -47 -46 -80 -19 -33 -100 -172 -179 -310 -80 -137 -156 -270 -170 -295
-14 -25 -30 -54 -36 -65 -6 -10 -17 -25 -24 -33 -6 -7 -12 -17 -12 -21 0 -7
-37 -73 -90 -161 -63 -104 -290 -503 -290 -509 0 -5 -7 -14 -15 -21 -8 -7 -15
-16 -15 -21 0 -5 54 -9 121 -9 66 0 254 -7 417 -14 163 -8 381 -17 484 -20
l187 -5 14 47 c8 26 20 72 26 102 37 166 135 433 217 588 66 126 113 190 191
263 87 80 200 129 398 171 147 31 464 31 615 -1 139 -29 228 -57 327 -102 108
-49 163 -88 250 -177 177 -181 310 -462 364 -770 7 -41 17 -76 23 -78 6 -2
316 -3 689 -2 l679 3 -95 145 c-53 80 -99 150 -104 155 -4 6 -69 103 -144 215
-74 113 -273 412 -441 665 -167 253 -339 512 -381 577 l-77 116 0 186 0 185
-107 3 -107 3 -43 100 c-24 55 -51 116 -60 135 -29 62 -163 382 -210 500 -77
197 -136 388 -198 645 -9 39 -21 86 -26 106 -14 56 -13 58 49 61 l57 3 0 135
0 135 -112 3 -111 3 -10 67 c-6 37 -15 112 -22 167 -6 55 -17 150 -25 210 -23
174 -43 342 -55 450 -6 55 -17 152 -25 215 -8 63 -19 165 -25 225 -6 61 -18
164 -25 230 -8 66 -19 172 -25 235 -5 63 -16 185 -25 270 -8 85 -19 223 -25
305 -6 83 -17 231 -25 330 -8 99 -19 263 -24 365 -6 102 -16 274 -23 383 l-12
197 37 38 37 38 0 147 0 147 -74 0 -74 0 -6 38 c-3 20 -10 76 -17 123 l-12 86
-42 0 -42 0 -13 -61z m184 -1426 c30 -25 55 -49 56 -54 0 -16 -113 -137 -120
-129 -5 4 -10 59 -12 121 -2 85 0 112 9 110 7 -2 37 -23 67 -48z m-121 -188
c-3 -67 -10 -119 -15 -116 -4 3 -34 37 -65 76 -43 54 -53 72 -42 79 8 4 38 26
68 48 30 23 56 39 58 38 2 -2 0 -58 -4 -125z m-100 -101 c32 -35 57 -66 56
-70 0 -3 -32 -30 -71 -60 l-71 -55 6 70 c4 38 7 95 7 127 0 32 4 57 8 55 5 -1
34 -32 65 -67z m247 -118 c14 -13 28 -23 32 -23 17 0 5 -18 -56 -83 l-63 -68
-6 83 c-4 46 -7 103 -7 127 l0 43 38 -28 c20 -16 48 -39 62 -51z m-171 -100
c0 -43 -4 -100 -7 -128 l-7 -49 -16 24 c-10 14 -25 34 -36 45 -10 11 -31 36
-46 56 l-27 36 63 46 c34 26 65 47 70 47 4 0 7 -35 6 -77z m227 -240 c-5 -5
-136 97 -136 106 0 3 30 36 68 74 l67 68 3 -122 c1 -67 1 -124 -2 -126z m-289
57 c18 -19 33 -38 33 -41 0 -9 -133 -109 -138 -104 -2 2 -1 60 3 129 l7 125
31 -37 c18 -20 47 -53 64 -72z m265 -116 c23 -14 45 -28 47 -30 3 -3 -9 -18
-25 -35 -35 -37 -133 -113 -138 -108 -2 2 -6 59 -10 127 l-6 123 44 -25 c24
-13 64 -37 88 -52z m-179 -106 c-3 -62 -9 -117 -13 -121 -4 -4 -42 24 -84 64
-69 65 -75 73 -59 84 29 20 147 84 155 85 4 0 5 -51 1 -112z m225 -193 l-3
-65 -50 41 c-27 23 -59 47 -69 55 -18 12 -15 17 50 86 l69 73 3 -62 c2 -35 2
-92 0 -128z m-358 80 c41 -41 72 -76 69 -78 -2 -2 -44 -27 -93 -56 l-89 -52 7
48 c3 26 9 85 13 130 3 46 9 83 12 83 4 0 40 -34 81 -75z m309 -162 c31 -20
58 -37 60 -39 2 -2 -9 -14 -25 -26 -16 -13 -53 -44 -82 -70 -29 -27 -57 -48
-62 -48 -6 0 -10 49 -10 125 l0 126 31 -17 c17 -8 57 -32 88 -51z m-199 24 c0
-16 -30 -241 -33 -243 -2 -2 -39 32 -82 76 -44 44 -75 80 -68 80 6 0 46 20 89
45 71 40 94 51 94 42z m289 -331 c1 -57 0 -58 -17 -43 -10 10 -22 17 -26 17
-5 0 -111 68 -134 86 -5 3 64 65 120 108 l43 34 6 -72 c4 -39 7 -98 8 -130z
m-339 23 c0 -5 -8 -13 -17 -16 -10 -4 -40 -21 -68 -38 -101 -64 -93 -68 -88
43 2 53 6 112 9 130 l5 33 80 -72 c43 -39 79 -75 79 -80z m232 -111 c48 -29
88 -55 87 -58 -1 -11 -168 -139 -172 -132 -8 14 -18 242 -11 242 4 0 47 -23
96 -52z m-212 -20 c0 -35 -21 -211 -26 -216 -1 -2 -38 31 -80 73 -84 82 -83
80 -19 111 17 8 48 25 70 39 52 31 55 31 55 -7z m334 -145 c2 -16 7 -59 11
-98 3 -38 8 -82 11 -97 4 -18 1 -28 -7 -28 -20 0 -229 100 -229 110 0 6 191
138 202 139 3 1 9 -11 12 -26z m-459 -66 c78 -57 111 -85 104 -91 -7 -7 -209
-96 -218 -96 -9 0 -6 53 11 172 7 53 14 76 22 71 6 -3 42 -29 81 -56z m445
-257 c0 -3 -48 -35 -107 -72 l-108 -67 -7 37 c-4 20 -7 79 -7 129 l-1 93 115
-57 c63 -32 115 -60 115 -63z m-314 28 c-3 -29 -8 -88 -12 -130 -5 -74 -7 -77
-26 -67 -19 10 -90 62 -130 94 -9 7 -26 18 -37 25 -12 6 -21 14 -21 19 0 4 44
27 98 51 53 24 101 47 107 52 20 18 26 6 21 -44z m348 -110 c9 -43 14 -228 6
-228 -4 0 -47 20 -96 44 -49 24 -99 46 -111 50 -13 4 -23 10 -23 14 0 7 200
140 212 141 4 1 10 -9 12 -21z m-476 -95 c39 -30 72 -58 72 -63 0 -5 -10 -12
-22 -16 -13 -4 -54 -21 -93 -39 -38 -18 -80 -36 -93 -40 -23 -7 -23 -5 -18 37
3 23 8 74 12 112 3 38 8 76 11 83 6 16 20 9 131 -74z m419 -217 c-18 -12 -68
-44 -113 -73 l-81 -51 -7 82 c-3 44 -6 104 -6 133 l0 51 119 -60 120 -61 -32
-21z m-308 42 c-4 -29 -8 -80 -8 -113 -2 -91 -8 -94 -82 -40 -35 25 -81 57
-101 70 -21 14 -38 27 -38 30 0 4 88 47 185 90 49 22 52 20 44 -37z m409 -200
c7 -66 10 -123 8 -125 -4 -5 -236 103 -236 110 0 7 117 87 127 87 5 1 22 12
38 25 17 14 35 25 40 25 7 0 16 -51 23 -122z m-540 -12 c29 -21 52 -40 50 -41
-2 -1 -37 -17 -78 -35 -41 -18 -93 -40 -115 -50 -22 -10 -41 -18 -42 -17 -3 4
16 205 22 230 l7 25 51 -37 c29 -20 76 -54 105 -75z m791 -788 c13 -46 30
-103 38 -127 7 -24 12 -45 10 -47 -6 -6 -274 40 -283 49 -7 7 188 206 202 206
5 1 21 -36 33 -81z m-899 32 c0 -38 -23 -170 -29 -170 -8 0 -243 99 -249 104
-2 2 30 14 70 26 40 12 98 30 128 40 71 24 80 24 80 0z m573 -182 c4 -62 7
-153 7 -202 0 -49 6 -115 14 -145 14 -53 49 -224 67 -321 4 -25 22 -110 39
-190 17 -80 35 -167 40 -195 4 -27 11 -62 15 -77 l7 -28 -425 0 -425 0 8 38
c8 36 30 164 51 287 6 33 16 94 24 135 7 41 18 109 25 150 6 41 18 103 26 137
10 44 14 129 14 293 l0 230 253 0 254 0 6 -112z m-728 -21 c55 -39 102 -72
104 -74 8 -6 -7 -15 -41 -23 -18 -5 -88 -25 -156 -45 -68 -21 -126 -35 -128
-32 -3 3 1 20 9 39 8 18 30 71 47 118 18 47 34 88 37 93 6 9 6 9 128 -76z
m890 -43 c55 -14 115 -29 133 -32 18 -4 33 -11 33 -15 0 -4 -45 -55 -100 -113
-91 -96 -100 -103 -106 -82 -24 84 -58 197 -66 216 -11 28 -12 52 -1 52 4 0
52 -12 107 -26z m309 -223 c19 -69 34 -127 32 -129 -3 -2 -28 1 -58 7 -29 5
-95 18 -146 28 l-93 17 108 108 c59 59 110 104 114 100 4 -4 23 -63 43 -131z
m-1079 82 c-3 -10 -11 -40 -16 -67 -5 -27 -13 -65 -19 -85 -5 -20 -12 -49 -15
-64 l-6 -28 -27 21 c-15 11 -52 38 -82 60 -30 21 -73 54 -94 73 l-40 34 80 17
c43 10 99 24 124 31 44 13 76 22 94 24 4 0 5 -7 1 -16z m-230 -192 c33 -26 77
-57 97 -71 21 -14 38 -28 38 -32 0 -4 -33 -16 -72 -28 -40 -12 -82 -25 -94
-30 -11 -4 -56 -18 -99 -30 -44 -12 -85 -24 -92 -27 -14 -5 -5 31 23 94 8 17
14 38 14 46 0 9 5 19 10 22 6 3 10 14 10 23 0 9 6 29 14 43 7 14 16 38 20 53
l7 27 32 -22 c18 -13 59 -43 92 -68z m1123 -56 c59 -14 124 -30 145 -36 l38
-10 -118 -125 c-116 -123 -118 -124 -126 -97 -4 16 -18 69 -31 118 -13 50 -29
103 -35 118 -15 39 -14 57 4 57 9 0 64 -11 123 -25z m331 -186 c17 -59 31
-111 31 -116 0 -10 -131 0 -231 19 l-67 13 110 104 c60 57 113 99 118 95 4 -5
22 -57 39 -115z m-1296 34 c-8 -27 -24 -79 -35 -118 -11 -38 -22 -76 -24 -84
-4 -11 -8 -11 -27 1 -12 8 -58 37 -102 63 -44 27 -81 52 -83 57 -2 4 -9 8 -15
8 -7 0 -22 8 -35 18 l-23 18 68 16 c37 10 93 22 123 29 30 6 75 17 100 24 70
20 70 20 53 -32z m-239 -201 c48 -31 74 -53 65 -56 -16 -6 -141 -33 -209 -46
-25 -5 -67 -13 -93 -18 -43 -9 -48 -8 -42 7 4 9 20 56 37 106 17 49 34 99 39
112 l8 23 58 -38 c32 -21 94 -62 137 -90z m1206 13 c36 -8 110 -24 164 -35 55
-11 102 -22 104 -24 2 -3 -44 -53 -102 -113 -58 -60 -115 -121 -126 -136 -12
-15 -25 -27 -30 -27 -5 0 -13 19 -18 43 -15 63 -70 270 -77 290 -9 21 -1 21
85 2z m402 -127 c9 -24 32 -78 52 -120 l35 -78 -47 0 c-26 0 -98 -3 -161 -7
l-115 -6 57 69 c32 38 78 95 104 127 25 31 49 57 52 57 4 0 14 -19 23 -42z
m-1444 -40 c-20 -65 -32 -105 -43 -148 -14 -51 -12 -50 -42 -34 -15 8 -47 27
-70 42 -23 15 -74 47 -113 71 -39 24 -69 46 -66 48 2 2 35 11 73 20 77 17 122
27 208 47 33 7 63 14 67 15 3 0 -3 -27 -14 -61z m-405 -467 c14 -5 34 -22 45
-36 68 -86 7 -215 -101 -215 -104 0 -167 101 -121 193 18 34 31 45 79 64 30
12 54 10 98 -6z m364 8 c15 -5 43 -24 61 -42 29 -28 32 -37 32 -86 -1 -82 -48
-131 -125 -131 -52 0 -84 17 -113 60 -48 70 -9 176 73 199 41 12 40 12 72 0z
m373 -12 c63 -30 88 -122 50 -184 -48 -80 -174 -85 -224 -9 -26 40 -22 128 8
162 42 50 102 61 166 31z m360 0 c36 -17 70 -74 70 -116 0 -132 -179 -181
-249 -68 -46 74 -11 165 74 195 32 11 64 8 105 -11z m323 9 c55 -23 87 -69 87
-128 0 -45 -4 -54 -40 -90 -39 -39 -42 -40 -96 -36 -77 7 -115 44 -122 120 -4
48 -1 58 24 87 27 32 74 60 102 61 7 0 27 -6 45 -14z m397 -9 c13 -7 35 -27
47 -46 58 -86 -6 -201 -112 -201 -153 0 -185 206 -40 258 32 11 64 8 105 -11z
m323 9 c18 -7 43 -26 57 -41 21 -22 25 -37 25 -86 0 -53 -3 -62 -32 -90 -26
-27 -41 -33 -87 -37 -54 -4 -57 -3 -96 36 -35 35 -40 45 -40 87 0 60 24 100
75 125 48 24 56 24 98 6z m-753 -351 c52 -8 114 -15 138 -15 23 0 42 -3 42 -7
0 -4 -15 -30 -34 -58 -18 -27 -57 -87 -86 -133 -29 -45 -54 -81 -55 -80 -2 2
-103 247 -122 296 -6 15 0 15 117 -3z m-300 -3 c0 -5 -11 -30 -23 -58 -13 -27
-41 -91 -63 -141 -21 -51 -41 -92 -44 -92 -3 0 -42 62 -86 137 -64 107 -78
138 -65 140 17 3 208 18 254 21 15 0 27 -3 27 -7z m-530 -21 c0 -10 -4 -31 -9
-47 -10 -33 -34 -118 -52 -184 -7 -25 -15 -48 -19 -52 -5 -7 -79 75 -169 188
l-41 52 68 16 c65 15 199 44 215 45 4 1 7 -7 7 -18z m-294 -143 c85 -83 154
-155 154 -158 0 -4 -78 -33 -172 -65 -95 -32 -177 -59 -183 -61 -12 -5 -9 60
10 219 8 66 15 141 15 168 0 29 4 49 11 49 6 0 81 -68 165 -152z m520 2 c13
-19 35 -51 48 -70 14 -19 25 -38 25 -41 1 -4 -32 -9 -71 -12 -40 -4 -106 -10
-147 -13 -70 -7 -74 -6 -66 12 4 10 16 44 27 74 11 30 26 69 34 87 8 17 14 33
14 36 0 2 7 21 16 42 l15 37 41 -59 c22 -32 51 -74 64 -93z m469 20 c25 -69
54 -142 62 -163 9 -20 14 -39 12 -41 -2 -1 -40 1 -84 5 -44 5 -111 11 -148 15
-50 4 -66 9 -59 17 5 7 28 47 51 90 53 100 114 207 117 204 1 -1 23 -58 49
-127z m686 120 c60 -10 197 -33 307 -51 39 -7 72 -15 71 -18 0 -3 -30 -31 -66
-61 -36 -30 -108 -94 -160 -142 -52 -49 -98 -88 -102 -88 -4 0 -15 28 -25 63
-10 34 -36 115 -57 179 -22 65 -39 120 -39 123 0 7 9 6 71 -5z m-2021 -67
c-12 -41 -49 -158 -76 -240 -13 -39 -24 -78 -24 -87 0 -28 -24 -17 -80 38 -30
29 -100 93 -155 141 -55 48 -101 90 -103 95 -1 4 32 13 75 19 103 16 248 41
298 51 72 14 75 13 65 -17z m1774 -209 c16 -91 20 -154 11 -154 -9 0 -155 39
-212 56 l-51 16 34 52 c48 72 62 91 124 180 l54 78 12 -68 c7 -38 19 -110 28
-160z m817 -67 c39 -72 96 -217 85 -217 -7 0 -55 9 -107 20 -52 12 -137 29
-189 40 -167 34 -244 51 -248 55 -9 9 28 44 281 262 l72 62 48 -102 c27 -56
53 -110 58 -120z m-2916 -4 c120 -104 159 -142 153 -148 -2 -3 -27 -9 -54 -15
-27 -5 -114 -23 -194 -41 -80 -17 -168 -35 -197 -40 -29 -5 -64 -14 -79 -19
-48 -18 -50 -26 74 240 22 47 51 111 66 143 l26 58 53 -46 c28 -25 97 -85 152
-132z m2496 -192 c30 -6 95 -15 144 -21 168 -21 305 -44 305 -51 0 -4 -15 -17
-33 -28 -18 -11 -44 -30 -57 -41 -14 -12 -60 -47 -104 -78 -43 -32 -97 -72
-119 -90 -66 -55 -73 -56 -87 -19 -13 31 -33 80 -51 122 -36 86 -79 197 -79
205 0 12 12 12 81 1z m-2304 -53 c-2 -7 -30 -78 -61 -158 -62 -159 -76 -189
-91 -189 -5 0 -95 64 -200 142 -157 117 -186 142 -165 145 14 1 66 9 115 17
50 7 131 19 180 25 50 6 113 15 140 20 76 12 88 11 82 -2z m2943 -165 c23 -54
55 -125 70 -158 15 -33 31 -71 35 -84 7 -22 5 -23 -26 -17 -19 3 -81 11 -138
16 -58 6 -108 13 -111 15 -4 2 -54 9 -111 14 -58 6 -115 14 -127 18 -21 8 -19
11 30 48 29 22 98 75 153 119 55 43 116 91 135 106 19 15 38 26 41 24 4 -2 26
-48 49 -101z m-3588 38 c39 -32 131 -104 173 -135 22 -17 42 -33 45 -36 3 -3
34 -28 68 -54 73 -55 71 -61 -22 -70 -63 -7 -235 -29 -364 -47 -41 -6 -76 -8
-79 -5 -5 5 146 366 154 366 1 0 13 -9 25 -19z m3188 -326 c52 -8 136 -19 185
-25 50 -7 113 -15 140 -19 l50 -6 -57 -40 c-31 -22 -120 -89 -199 -148 -78
-60 -145 -105 -150 -100 -4 4 -38 82 -74 173 -37 91 -69 170 -71 177 -6 13 26
11 176 -12z m585 -32 c10 -27 31 -75 46 -108 47 -105 89 -208 86 -211 -2 -2
-30 0 -63 6 -32 5 -106 14 -164 20 -114 12 -302 39 -307 44 -2 2 31 30 73 62
43 32 96 74 118 91 116 92 182 142 187 142 4 1 14 -20 24 -46z m-3279 -20 c-4
-14 -29 -78 -55 -142 -27 -64 -54 -133 -60 -153 -21 -63 -20 -64 -176 59 -44
34 -118 91 -165 125 l-85 63 35 3 c33 2 104 12 340 47 52 8 109 16 125 18 17
2 34 5 39 6 4 0 5 -11 2 -26z m-691 -10 c33 -28 87 -71 202 -160 138 -107 136
-106 122 -113 -15 -7 -114 -21 -284 -40 -55 -6 -129 -15 -165 -20 -35 -5 -66
-8 -67 -6 -4 4 28 87 64 165 36 80 49 111 68 159 10 23 19 42 22 42 3 0 20
-12 38 -27z"/>

</g>
</svg>
